<svg xmlns="http://www.w3.org/2000/svg" width="308.402" height="54.84" viewBox="0 0 308.402 54.84">
  <g id="top_logo" data-name="top logo" transform="translate(-249.99 -35.892)">
    <g id="top_logo-2" data-name="top logo" transform="translate(249.99 35.892)">
      <g id="noun_Penguin_3558777" transform="translate(0 0)">
        <path id="Path_9" data-name="Path 9" d="M49.079,51.225a9.992,9.992,0,0,1-6.056-3.943c-.022-.031-.039-.056-.06-.083-2.767-3.542-.723-10.743-.7-10.816.011-.036.02-.075.027-.112,1.479-7.472-4.063-19.494-5.8-23a.736.736,0,0,1-.047-.519A10.269,10.269,0,0,0,27.127.157,10.621,10.621,0,0,0,15.9,6.433a2.838,2.838,0,0,1-1.158.37A45.143,45.143,0,0,0,8.024,8.37L6.5,8.863A1.316,1.316,0,0,0,6.6,11.4l4.916,1.173,4.574,1.316a11.621,11.621,0,0,0,3.35,4.681c-.216.633-.573,1.647-1.134,3.142a9.345,9.345,0,0,1-3.48-2.019,15.723,15.723,0,0,0-4.969-2.929C6.087,15.444,2.9,15.915.645,18.114a1.316,1.316,0,0,0,.821,2.255,4.958,4.958,0,0,1,1.067.412A10.7,10.7,0,0,1,6.2,23.717l.494.609c2.864,3.543,5.482,6.583,7.718,7.485-1.694,6,1.354,10.142,3.435,12.958.947,1.279,1.931,2.6,1.772,3.28-.24.728-3.034,2.467-5.871,3.658h0l-.034.014c-.021.009-.039.023-.059.032a1.258,1.258,0,0,0-.156.088c-.031.02-.057.043-.088.066A1.274,1.274,0,0,0,13.3,52a.936.936,0,0,0-.075.088,1.3,1.3,0,0,0-.088.11,1.094,1.094,0,0,0-.06.1,1.128,1.128,0,0,0-.063.121,1.29,1.29,0,0,0-.045.132c-.009.032-.025.061-.032.093v.019a1.167,1.167,0,0,0-.018.147c0,.037-.011.075-.011.112a1.03,1.03,0,0,0,.009.115,1.309,1.309,0,0,0,.013.144c.005.027.016.056.023.088a1.554,1.554,0,0,0,.05.165l.005.015c0,.011.012.018.016.029a1.328,1.328,0,0,0,.166.272c.015.018.027.039.043.056a1.329,1.329,0,0,0,.252.223c.018.012.038.022.057.033a1.3,1.3,0,0,0,.255.119c.027.009.052.019.078.027s.033.013.052.018a24.4,24.4,0,0,0,5.461.665c4.88,0,7.535-1.812,8.5-2.655.208.035.477.093.756.154a10.031,10.031,0,0,0,6.076-.132,14.915,14.915,0,0,0,3.341.964l.263.049a101.448,101.448,0,0,0,10.539.577h.015a1.316,1.316,0,0,0,.2-2.619ZM8.742,22.672l-.5-.614a13.5,13.5,0,0,0-3.74-3.21,7.691,7.691,0,0,1,4.492.405,13.146,13.146,0,0,1,4.135,2.457,12.271,12.271,0,0,0,4.234,2.465q-.837,2.153-2.071,5.2C14.182,28.93,11.987,26.685,8.742,22.672Zm20.47,27.141a11.289,11.289,0,0,0-1.229-.227,2.217,2.217,0,0,0-1.736.586c-.675.626-2.948,2.287-7.653,2.064,1.712-1.021,3.3-2.282,3.594-3.591.426-1.867-.8-3.524-2.22-5.442-2.258-3.051-4.817-6.51-2.558-12.04,2.5-6.122,3.763-9.55,4.362-11.272a8.787,8.787,0,0,0,3.51.52,27.983,27.983,0,0,0-2.7,11.842,19.574,19.574,0,0,0,.679,5.824,7.49,7.49,0,0,0,1.993,3.7,3.284,3.284,0,0,0,2.619.591l.1-.014a1.485,1.485,0,0,0,.615-.207,21.285,21.285,0,0,0,.484,3.27,9.831,9.831,0,0,0,.995,2.656,9.655,9.655,0,0,0,1.587,2.1,13.016,13.016,0,0,1-2.447-.362Zm9.621.87-.282-.054a8.147,8.147,0,0,1-6.184-3.845,7.254,7.254,0,0,1-.723-1.957,17.686,17.686,0,0,1-.324-6.215c.59-1.03,1.279-2.346,2.089-4.032a1.316,1.316,0,1,0-2.37-1.141,40.087,40.087,0,0,1-3.366,6,.727.727,0,0,1-.413.341c-.284.052-.51-.227-.652-.479-1.342-2.37-1.445-5.3-1.326-7.961A25.079,25.079,0,0,1,28.92,19.238a1.316,1.316,0,0,0-1.647-1.9,6.846,6.846,0,0,1-4.73.037,7.791,7.791,0,0,1-4.051-4.581,2.417,2.417,0,0,0-1.564-1.409L12.19,10.022l-.113-.027c.955-.214,1.979-.41,3.1-.594,1.58-.263,2.587-.828,3.067-1.734a1.652,1.652,0,0,0,.068-.151,7.971,7.971,0,0,1,8.548-4.739,7.748,7.748,0,0,1,5.854,3.256,7.652,7.652,0,0,1,1.195,6.042,3.364,3.364,0,0,0,.231,2.365c3.371,6.817,6.6,15.975,5.584,21.27-.235.835-2.3,8.62,1.141,13.078a12.956,12.956,0,0,0,2.052,2.248,35.8,35.8,0,0,1-4.08-.354Z" transform="translate(-0.248 -0.052)"/>
        <path id="Intersection_1" data-name="Intersection 1" d="M65.069-4.465A2.538,2.538,0,0,1,67.6-7.014h0a2.5,2.5,0,0,1,1.049.23l6.083-4.785A9.608,9.608,0,0,1,76.8-9.5L70.115-4.248A2.536,2.536,0,0,1,67.6-1.916a2.538,2.538,0,0,1-2.529-2.549Z" transform="translate(-42.903 14.033)" fill="#f2bb05" stroke="#000" stroke-linejoin="round" stroke-width="1.058"/>
        <path id="Path_10" data-name="Path 10" d="M3.525.7A1.415,1.415,0,1,0,4.939,2.115,1.415,1.415,0,0,0,3.525.7Z" transform="translate(21.225 7.421)"/>
      </g>
      <path id="path913" d="M28.24,7.329a8,8,0,0,0-6.926,4.083c-.411.734-.735,1.625-1.56,2a16.925,16.925,0,0,1-4.088,1.017c-.251.108-.688.01-.788.327.1.321.55.272.8.412,1.482.49,3.03.791,4.47,1.4.87.467,1.048,1.541,1.544,2.314a6.916,6.916,0,0,0,3.82,3.506,7.415,7.415,0,0,0,4.789-.189,1.125,1.125,0,0,1,1.347,1.258,13.211,13.211,0,0,1-1.022,2.077,25.194,25.194,0,0,0-2.783,12.1,12.436,12.436,0,0,0,1.437,6.612c.189.376.726.651,1.057.277A25.868,25.868,0,0,0,32.476,41.1c.614-1.036,1.051-2.169,1.7-3.185a1.15,1.15,0,0,1,1.856.351,1.351,1.351,0,0,1-.194,1.305c-.606,1.308-1.343,2.567-1.93,3.886a16.914,16.914,0,0,0,.023,4.55,8.592,8.592,0,0,0,1.854,4.8,8.378,8.378,0,0,0,4.986,2.652,29.859,29.859,0,0,0,4.77.511c.44-.151-.07-.525-.24-.693a10.4,10.4,0,0,1-2.939-4.525,18.812,18.812,0,0,1-.078-8.871,13.415,13.415,0,0,0,.492-3.006,30.012,30.012,0,0,0-1.633-9.519,76.814,76.814,0,0,0-4.081-10.138,3.7,3.7,0,0,1-.209-2.648A7.818,7.818,0,0,0,36.276,12a3.184,3.184,0,0,0-.609-1.062c-.382.005-.654.385-.972.563-1.4,1.072-2.815,2.123-4.106,3.32a3.668,3.668,0,0,1-1.042,1.744,2.781,2.781,0,0,1-2.158.639,2.871,2.871,0,1,1,.77-5.689c.264.06.557.143.781-.071C30.223,10.5,31.478,9.514,32.7,8.5c.138-.351-.367-.394-.577-.518a9.748,9.748,0,0,0-3.886-.653Z" transform="translate(-2.976 -4.824)" fill="#fff"/>
      <path id="path915" d="M21.563,12.5c-.317.088-.292.533-.442.776-1.352,3.8-2.926,7.522-4.368,11.293a9.834,9.834,0,0,0-.4,5.366c.583,2.63,2.332,4.76,3.857,6.9.877,1.24,1.843,2.646,1.609,4.24-.2,1.318-1.36,2.185-2.349,2.94-.319.289-.777.424-1.035.772-.088.376.416.346.655.343,2.418-.054,5.006-.466,6.922-2.058a2.211,2.211,0,0,1,2.006-.581,19.7,19.7,0,0,0,3.195.5c.331-.056.18-.445-.01-.577a10.527,10.527,0,0,1-2.467-5.685c-.112-.618-.138-1.237-.251-1.854-.231-.286-.594.079-.891.035a3.257,3.257,0,0,1-2.169-.366,5.96,5.96,0,0,1-2.106-3.395,23.047,23.047,0,0,1-.594-9.448,28.57,28.57,0,0,1,2.4-8.408c.048-.427-.51-.354-.779-.357a11.024,11.024,0,0,1-2.694-.437.559.559,0,0,0-.089,0Z" transform="translate(-0.009 7.247)" fill="#fff"/>
      <path id="path917" d="M14.11,12.118a5.316,5.316,0,0,0-1.534.2c-.122.362.423.444.619.653,2.3,1.468,3.81,3.8,5.59,5.808a24.029,24.029,0,0,0,4.162,4.088c.177.123.514.382.641.065.7-1.668,1.394-3.344,2.015-5.043-.024-.347-.49-.391-.733-.538a14.342,14.342,0,0,1-3.985-2.562,14.056,14.056,0,0,0-4.343-2.316,7.946,7.946,0,0,0-2.43-.353Z" transform="translate(-8.39 6.359)" fill="#fff"/>
    </g>
    <g id="Group_12" data-name="Group 12" transform="translate(309.243 -63.811)">
      <path id="Path_14" data-name="Path 14" d="M45.7-96.063a1.87,1.87,0,0,1,1.524.609,2.457,2.457,0,0,1,.508,1.625,4.812,4.812,0,0,1-.2,1.422L37.319-58.53a3.637,3.637,0,0,1-1.041,1.549,2.391,2.391,0,0,1-1.6.584,2.489,2.489,0,0,1-1.625-.584,3.206,3.206,0,0,1-1.016-1.5L24.47-87.734,16.8-58.53a3.637,3.637,0,0,1-1.041,1.549,2.391,2.391,0,0,1-1.6.584,2.559,2.559,0,0,1-1.625-.559,3.043,3.043,0,0,1-1.016-1.524L1.31-92.406a4.636,4.636,0,0,1-.2-1.371,2.322,2.322,0,0,1,.584-1.676,2.111,2.111,0,0,1,1.6-.609,2.615,2.615,0,0,1,1.6.508,2.823,2.823,0,0,1,.99,1.473L14.21-65.133l7.669-28.645a2.252,2.252,0,0,1,.914-1.27,2.726,2.726,0,0,1,1.625-.508,2.851,2.851,0,0,1,1.574.457,2.052,2.052,0,0,1,.914,1.27l7.771,28.9,8.431-29.406A2.179,2.179,0,0,1,44-95.657,3.124,3.124,0,0,1,45.7-96.063ZM72.211-70.72a2.126,2.126,0,0,1-.66,1.6,2.32,2.32,0,0,1-1.676.635h-19.3A8.948,8.948,0,0,0,53.8-62.746a9.964,9.964,0,0,0,6.526,2.184,9.888,9.888,0,0,0,3.174-.559,9.475,9.475,0,0,0,2.717-1.371,2.633,2.633,0,0,1,1.676-.559,2.18,2.18,0,0,1,1.524.508,2.219,2.219,0,0,1,.914,1.727,1.839,1.839,0,0,1-.813,1.524,14.044,14.044,0,0,1-4.292,2.235,15.355,15.355,0,0,1-4.9.863A15.318,15.318,0,0,1,52.86-58a13.085,13.085,0,0,1-5.155-5,14.221,14.221,0,0,1-1.854-7.263A15.017,15.017,0,0,1,47.6-77.551a12.669,12.669,0,0,1,4.876-5.028,13.913,13.913,0,0,1,7.085-1.8,12.766,12.766,0,0,1,6.755,1.727,11.388,11.388,0,0,1,4.368,4.825A15.911,15.911,0,0,1,72.211-70.72ZM59.564-80.014a8.781,8.781,0,0,0-6.018,2.032,9.12,9.12,0,0,0-2.92,5.434H67.538A9,9,0,0,0,65-77.982,7.451,7.451,0,0,0,59.564-80.014ZM93.8-84.382a12.394,12.394,0,0,1,6.628,1.828A12.829,12.829,0,0,1,105.1-77.5a15.162,15.162,0,0,1,1.7,7.187,14.314,14.314,0,0,1-1.828,7.187,13.358,13.358,0,0,1-5.053,5.079,14.063,14.063,0,0,1-7.136,1.854,13.789,13.789,0,0,1-7.085-1.854,13.656,13.656,0,0,1-5.028-5.079,14.161,14.161,0,0,1-1.854-7.187V-93.473a2.493,2.493,0,0,1,.736-1.879,2.561,2.561,0,0,1,1.854-.711,2.54,2.54,0,0,1,1.879.711,2.54,2.54,0,0,1,.711,1.879V-79.76a12.442,12.442,0,0,1,4.317-3.4A12.51,12.51,0,0,1,93.8-84.382ZM92.78-60.765a8.707,8.707,0,0,0,4.6-1.244,8.924,8.924,0,0,0,3.25-3.428,10,10,0,0,0,1.194-4.876,9.853,9.853,0,0,0-1.194-4.85,8.973,8.973,0,0,0-3.25-3.4,8.707,8.707,0,0,0-4.6-1.244,8.707,8.707,0,0,0-4.6,1.244,8.786,8.786,0,0,0-3.225,3.4,10.024,10.024,0,0,0-1.168,4.85,10.172,10.172,0,0,0,1.168,4.876,8.74,8.74,0,0,0,3.225,3.428A8.707,8.707,0,0,0,92.78-60.765Z" transform="translate(-1 207.996)" fill="#fff" stroke="#fff" stroke-width="2"/>
      <path id="Path_13" data-name="Path 13" d="M14.941-56.4a2.553,2.553,0,0,1-1.879-.762,2.553,2.553,0,0,1-.762-1.879V-93.422a2.531,2.531,0,0,1,.762-1.9,2.6,2.6,0,0,1,1.879-.736h9.193a20.3,20.3,0,0,1,10.208,2.539A17.934,17.934,0,0,1,41.3-86.489a20.771,20.771,0,0,1,2.489,10.234A20.916,20.916,0,0,1,41.3-66a17.888,17.888,0,0,1-6.958,7.06A20.3,20.3,0,0,1,24.134-56.4Zm9.193-4.673A14.752,14.752,0,0,0,31.676-63a13.4,13.4,0,0,0,5.18-5.409,16.423,16.423,0,0,0,1.854-7.847,16.274,16.274,0,0,0-1.854-7.821,13.443,13.443,0,0,0-5.18-5.384,14.752,14.752,0,0,0-7.542-1.93H17.582V-61.07ZM74.465-84.229a2.54,2.54,0,0,1,1.879.711,2.54,2.54,0,0,1,.711,1.879v22.652a2.561,2.561,0,0,1-.711,1.854,2.493,2.493,0,0,1-1.879.736,2.513,2.513,0,0,1-1.854-.736,2.513,2.513,0,0,1-.736-1.854v-.559a11.289,11.289,0,0,1-3.86,2.514,12.8,12.8,0,0,1-4.774.889,12.935,12.935,0,0,1-6.3-1.524,10.733,10.733,0,0,1-4.368-4.444A14.635,14.635,0,0,1,51-69.145V-81.639a2.513,2.513,0,0,1,.736-1.854,2.513,2.513,0,0,1,1.854-.736,2.513,2.513,0,0,1,1.854.736,2.513,2.513,0,0,1,.736,1.854v12.494q0,4.114,2.209,6.222a8.145,8.145,0,0,0,5.866,2.108,8.67,8.67,0,0,0,3.885-.863,6.89,6.89,0,0,0,2.743-2.336,5.784,5.784,0,0,0,.99-3.3V-81.639a2.493,2.493,0,0,1,.736-1.879A2.561,2.561,0,0,1,74.465-84.229Zm25.547-.2a12.935,12.935,0,0,1,6.3,1.524,10.733,10.733,0,0,1,4.368,4.444,14.635,14.635,0,0,1,1.574,7.034v12.494a2.513,2.513,0,0,1-.736,1.854,2.513,2.513,0,0,1-1.854.736,2.514,2.514,0,0,1-1.854-.736,2.513,2.513,0,0,1-.736-1.854V-71.431q0-4.114-2.209-6.222A8.145,8.145,0,0,0,99-79.76a8.67,8.67,0,0,0-3.885.863,6.89,6.89,0,0,0-2.743,2.336,5.784,5.784,0,0,0-.99,3.3v14.322a2.561,2.561,0,0,1-.711,1.854,2.493,2.493,0,0,1-1.879.736,2.513,2.513,0,0,1-1.854-.736,2.513,2.513,0,0,1-.736-1.854V-81.588a2.493,2.493,0,0,1,.736-1.879,2.561,2.561,0,0,1,1.854-.711,2.54,2.54,0,0,1,1.879.711,2.54,2.54,0,0,1,.711,1.879v.559a11.289,11.289,0,0,1,3.86-2.514A12.8,12.8,0,0,1,100.011-84.432Zm45.76,13.713a2.126,2.126,0,0,1-.66,1.6,2.32,2.32,0,0,1-1.676.635h-19.3a8.948,8.948,0,0,0,3.225,5.739,9.964,9.964,0,0,0,6.526,2.184,9.888,9.888,0,0,0,3.174-.559,9.475,9.475,0,0,0,2.717-1.371,2.632,2.632,0,0,1,1.676-.559,2.18,2.18,0,0,1,1.524.508,2.219,2.219,0,0,1,.914,1.727,1.839,1.839,0,0,1-.813,1.524,14.043,14.043,0,0,1-4.292,2.235,15.355,15.355,0,0,1-4.9.863,15.318,15.318,0,0,1-7.466-1.8,13.085,13.085,0,0,1-5.155-5,14.22,14.22,0,0,1-1.854-7.263,15.017,15.017,0,0,1,1.752-7.288,12.669,12.669,0,0,1,4.876-5.028,13.913,13.913,0,0,1,7.085-1.8,12.766,12.766,0,0,1,6.755,1.727,11.387,11.387,0,0,1,4.368,4.825A15.911,15.911,0,0,1,145.772-70.72Zm-12.646-9.294a8.781,8.781,0,0,0-6.018,2.032,9.12,9.12,0,0,0-2.92,5.434H141.1a9,9,0,0,0-2.539-5.434A7.451,7.451,0,0,0,133.125-80.014Z" transform="translate(102.378 207.996)" fill="#fff" stroke="#fff" stroke-width="2"/>
    </g>
  </g>
</svg>
