<svg xmlns="http://www.w3.org/2000/svg" xmlns:xlink="http://www.w3.org/1999/xlink" viewBox="0 0 24 30" version="1.1" x="0px" y="0px"><title>icons / menu</title><desc>Created with Sketch.</desc><g stroke="none" stroke-width="1" fill="none" fill-rule="evenodd"><path d="M21,18 C21.5522847,18 22,18.4477153 22,19 C22,19.5128358 21.6139598,19.9355072 21.1166211,19.9932723 L21,20 L3,20 C2.44771525,20 2,19.5522847 2,19 C2,18.4871642 2.38604019,18.0644928 2.88337887,18.0067277 L3,18 L21,18 Z M21,11 C21.5522847,11 22,11.4477153 22,12 C22,12.5128358 21.6139598,12.9355072 21.1166211,12.9932723 L21,13 L3,13 C2.44771525,13 2,12.5522847 2,12 C2,11.4871642 2.38604019,11.0644928 2.88337887,11.0067277 L3,11 L21,11 Z M21,4 C21.5522847,4 22,4.44771525 22,5 C22,5.51283584 21.6139598,5.93550716 21.1166211,5.99327227 L21,6 L3,6 C2.44771525,6 2,5.55228475 2,5 C2,4.48716416 2.38604019,4.06449284 2.88337887,4.00672773 L3,4 L21,4 Z" fill="#000000" fill-rule="nonzero"/></g><text x="0" y="39" fill="#000000" font-size="5px" font-weight="bold" font-family="'Helvetica Neue', Helvetica, Arial-Unicode, Arial, Sans-serif">Created by Stereo</text><text x="0" y="44" fill="#000000" font-size="5px" font-weight="bold" font-family="'Helvetica Neue', Helvetica, Arial-Unicode, Arial, Sans-serif">from the Noun Project</text></svg>