<?xml version="1.0" encoding="UTF-8" standalone="no"?>
<svg
   xmlns:dc="http://purl.org/dc/elements/1.1/"
   xmlns:cc="http://creativecommons.org/ns#"
   xmlns:rdf="http://www.w3.org/1999/02/22-rdf-syntax-ns#"
   xmlns:svg="http://www.w3.org/2000/svg"
   xmlns="http://www.w3.org/2000/svg"
   xmlns:sodipodi="http://sodipodi.sourceforge.net/DTD/sodipodi-0.dtd"
   xmlns:inkscape="http://www.inkscape.org/namespaces/inkscape"
   width="210mm"
   height="297mm"
   viewBox="0 0 210 297"
   version="1.1"
   id="svg8"
   inkscape:version="1.0.1 (3bc2e813f5, 2020-09-07)"
   sodipodi:docname="penguin logo FINAL.svg">
  <defs
     id="defs2">
    <clipPath
       id="clip-penguin_logo_FINAL">
      <rect
         width="185"
         height="203.08"
         id="rect833" />
    </clipPath>
  </defs>
  <sodipodi:namedview
     id="base"
     pagecolor="#ffffff"
     bordercolor="#666666"
     borderopacity="1.0"
     inkscape:pageopacity="0.0"
     inkscape:pageshadow="2"
     inkscape:zoom="1.4"
     inkscape:cx="363.59229"
     inkscape:cy="554.14896"
     inkscape:document-units="mm"
     inkscape:current-layer="layer1"
     inkscape:document-rotation="0"
     showgrid="false"
     inkscape:window-width="1920"
     inkscape:window-height="1017"
     inkscape:window-x="1912"
     inkscape:window-y="-8"
     inkscape:window-maximized="1" />
  <metadata
     id="metadata5">
    <rdf:RDF>
      <cc:Work
         rdf:about="">
        <dc:format>image/svg+xml</dc:format>
        <dc:type
           rdf:resource="http://purl.org/dc/dcmitype/StillImage" />
        <dc:title></dc:title>
      </cc:Work>
    </rdf:RDF>
  </metadata>
  <g
     inkscape:label="Layer 1"
     inkscape:groupmode="layer"
     id="layer1">
    <g
       id="layer1-5"
       transform="matrix(0.26458333,0,0,0.26458333,74.583066,100.3605)">
      <g
         id="noun_Penguin_3558777"
         transform="translate(42.743,24.856)">
        <path
           id="Path_9"
           data-name="Path 9"
           d="m 181.77,189.7 c -13.847,-2.074 -22.347,-14.484 -22.428,-14.6 -0.081,-0.116 -0.143,-0.208 -0.221,-0.306 -10.245,-13.115 -2.679,-39.785 -2.6,-40.055 0.039,-0.133 0.074,-0.277 0.1,-0.416 5.477,-27.672 -15.046,-72.19 -21.472,-85.162 A 2.724,2.724 0 0 1 134.976,47.24 38.028,38.028 0 0 0 100.475,0.587 39.331,39.331 0 0 0 58.911,23.828 10.509,10.509 0 0 1 54.624,25.2 167.171,167.171 0 0 0 29.732,31 l -5.626,1.824 a 4.875,4.875 0 0 0 0.367,9.381 l 18.206,4.345 16.94,4.875 a 43.036,43.036 0 0 0 12.407,17.333 c -0.8,2.344 -2.123,6.1 -4.2,11.637 A 34.607,34.607 0 0 1 54.938,72.919 58.226,58.226 0 0 0 36.538,62.072 C 22.561,57.197 10.756,58.942 2.408,67.085 a 4.875,4.875 0 0 0 3.039,8.35 18.359,18.359 0 0 1 3.953,1.524 39.614,39.614 0 0 1 13.59,10.873 l 1.83,2.256 c 10.606,13.122 20.3,24.379 28.582,27.72 -6.274,22.217 5.013,37.559 12.722,47.987 3.507,4.736 7.151,9.634 6.562,12.147 -0.89,2.695 -11.236,9.134 -21.743,13.545 v 0 l -0.127,0.052 c -0.078,0.033 -0.143,0.086 -0.218,0.12 a 4.667,4.667 0 0 0 -0.576,0.325 c -0.114,0.074 -0.211,0.159 -0.325,0.244 a 4.713,4.713 0 0 0 -0.416,0.346 3.473,3.473 0 0 0 -0.279,0.325 4.8,4.8 0 0 0 -0.325,0.406 4.052,4.052 0 0 0 -0.221,0.377 4.179,4.179 0 0 0 -0.234,0.449 4.779,4.779 0 0 0 -0.166,0.487 c -0.035,0.117 -0.091,0.227 -0.117,0.346 v 0.072 a 4.323,4.323 0 0 0 -0.068,0.546 c 0,0.137 -0.042,0.277 -0.042,0.413 a 3.815,3.815 0 0 0 0.033,0.426 4.848,4.848 0 0 0 0.048,0.533 c 0.02,0.1 0.061,0.208 0.086,0.325 a 5.751,5.751 0 0 0 0.185,0.611 l 0.02,0.055 c 0.016,0.039 0.046,0.068 0.061,0.107 a 4.919,4.919 0 0 0 0.615,1.008 c 0.055,0.068 0.1,0.143 0.159,0.208 a 4.922,4.922 0 0 0 0.933,0.825 c 0.068,0.046 0.14,0.081 0.211,0.124 a 4.818,4.818 0 0 0 0.946,0.439 c 0.1,0.033 0.192,0.072 0.29,0.1 0.098,0.028 0.124,0.048 0.192,0.065 a 90.364,90.364 0 0 0 20.224,2.461 c 18.073,0 27.905,-6.709 31.494,-9.833 0.77,0.13 1.765,0.346 2.8,0.572 a 37.147,37.147 0 0 0 22.5,-0.487 55.235,55.235 0 0 0 12.374,3.571 l 0.975,0.182 c 9.033,1.768 37.81,2.123 39.028,2.136 h 0.055 a 4.875,4.875 0 0 0 0.725,-9.7 z M 32.394,83.963 30.54,81.688 A 49.973,49.973 0 0 0 16.69,69.8 a 28.481,28.481 0 0 1 16.636,1.5 48.682,48.682 0 0 1 15.314,9.1 45.441,45.441 0 0 0 15.681,9.13 q -3.1,7.973 -7.671,19.249 C 52.537,107.139 44.408,98.824 32.394,83.963 Z M 108.2,184.471 a 41.807,41.807 0 0 0 -4.55,-0.842 8.211,8.211 0 0 0 -6.429,2.171 c -2.5,2.318 -10.918,8.47 -28.341,7.645 6.339,-3.78 12.205,-8.451 13.31,-13.3 1.576,-6.914 -2.964,-13.051 -8.22,-20.153 -8.36,-11.3 -17.839,-24.109 -9.472,-44.586 9.256,-22.67 13.936,-35.366 16.153,-41.744 a 32.54,32.54 0 0 0 13,1.927 103.627,103.627 0 0 0 -9.982,43.855 72.486,72.486 0 0 0 2.516,21.567 c 1.475,4.781 3.338,10.437 7.382,13.714 a 12.161,12.161 0 0 0 9.7,2.187 l 0.371,-0.052 a 5.5,5.5 0 0 0 2.276,-0.768 78.822,78.822 0 0 0 1.794,12.108 36.406,36.406 0 0 0 3.683,9.836 35.753,35.753 0 0 0 5.877,7.779 48.2,48.2 0 0 1 -9.062,-1.342 z m 35.628,3.221 -1.043,-0.2 c -5.815,-1.092 -16.643,-3.12 -22.9,-14.237 a 26.863,26.863 0 0 1 -2.679,-7.249 65.494,65.494 0 0 1 -1.2,-23.017 c 2.184,-3.813 4.736,-8.689 7.736,-14.933 a 4.875,4.875 0 1 0 -8.776,-4.225 148.449,148.449 0 0 1 -12.466,22.236 2.691,2.691 0 0 1 -1.528,1.264 c -1.05,0.192 -1.888,-0.842 -2.415,-1.774 -4.97,-8.776 -5.35,-19.619 -4.912,-29.481 a 92.872,92.872 0 0 1 13.471,-44.831 4.875,4.875 0 0 0 -6.1,-7.034 A 25.354,25.354 0 0 1 83.5,64.348 C 77.16,61.8 72.118,56.093 68.5,47.382 a 8.952,8.952 0 0 0 -5.791,-5.217 l -17.547,-5.048 -0.419,-0.1 c 3.537,-0.793 7.327,-1.518 11.474,-2.2 5.851,-0.975 9.582,-3.066 11.358,-6.423 a 6.115,6.115 0 0 0 0.251,-0.559 29.52,29.52 0 0 1 31.655,-17.55 28.694,28.694 0 0 1 21.677,12.059 28.337,28.337 0 0 1 4.424,22.376 12.459,12.459 0 0 0 0.855,8.757 c 12.482,25.243 24.444,59.158 20.68,78.769 -0.871,3.092 -8.5,31.923 4.225,48.432 a 47.979,47.979 0 0 0 7.6,8.325 132.592,132.592 0 0 1 -15.108,-1.31 z"
           transform="translate(-0.939,-0.198)" />
        <path
           id="Intersection_1"
           data-name="Intersection 1"
           d="m 245.934,-17.418 a 9.4,9.4 0 0 1 9.367,-9.439 v 0 a 9.246,9.246 0 0 1 3.886,0.853 l 22.525,-17.718 a 35.582,35.582 0 0 1 7.656,7.654 l -24.748,19.454 a 9.393,9.393 0 0 1 -9.32,8.637 9.4,9.4 0 0 1 -9.366,-9.441 z"
           transform="translate(-163.848,52.852)"
           fill="#f2bb05"
           stroke="#000000"
           stroke-linejoin="round"
           stroke-width="4" />
        <path
           id="Path_10"
           data-name="Path 10"
           d="M 13.216,2.646 A 5.24,5.24 0 1 0 18.453,7.884 5.24,5.24 0 0 0 13.216,2.646 Z"
           transform="translate(78.437,27.428)" />
      </g>
      <path
         id="path913"
         d="M 105.716,27.7 A 29.62,29.62 0 0 0 80.069,42.82 c -1.521,2.719 -2.723,6.018 -5.776,7.391 -4.624,2.472 -10.093,2.529 -15.139,3.767 -0.93,0.4 -2.549,0.036 -2.918,1.212 0.352,1.187 2.035,1.009 2.961,1.524 5.487,1.814 11.219,2.93 16.553,5.18 3.223,1.729 3.88,5.708 5.718,8.571 3.054,5.742 7.791,10.973 14.146,12.985 5.76,1.969 12.074,1.259 17.734,-0.7 a 4.165,4.165 0 0 1 4.989,4.659 c -0.695,2.788 -2.619,5.087 -3.783,7.692 a 93.3,93.3 0 0 0 -10.307,44.823 c 0.019,8.379 0.8,17.2 5.32,24.484 0.7,1.392 2.689,2.41 3.916,1.025 3.142,-3.876 5.425,-8.373 7.917,-12.678 2.273,-3.835 3.892,-8.034 6.283,-11.794 1.961,-2.2 5.771,-1.3 6.872,1.3 0.9,1.61 0.077,3.376 -0.719,4.834 -2.243,4.842 -4.973,9.507 -7.149,14.392 a 62.636,62.636 0 0 0 0.087,16.851 c 0.741,6.357 2.524,12.873 6.864,17.76 4.617,5.52 11.513,8.542 18.465,9.821 a 110.577,110.577 0 0 0 17.665,1.893 c 1.63,-0.559 -0.258,-1.944 -0.888,-2.565 -4.888,-4.629 -8.989,-10.282 -10.883,-16.756 -3.174,-10.7 -2.352,-22.077 -0.288,-32.853 0.856,-3.667 1.813,-7.337 1.822,-11.131 0.362,-12.014 -2.594,-23.835 -6.048,-35.252 A 284.461,284.461 0 0 0 138.372,71.712 c -1.644,-3.008 -1.556,-6.56 -0.775,-9.807 A 28.951,28.951 0 0 0 135.473,45 c -0.708,-1.309 -1.07,-2.971 -2.255,-3.933 -1.416,0.019 -2.421,1.426 -3.6,2.084 -5.167,3.968 -10.426,7.863 -15.207,12.294 -0.879,2.334 -1.778,4.877 -3.857,6.458 a 10.3,10.3 0 0 1 -7.993,2.365 C 96.752,63.868 92.24,57.841 93.251,52.144 94,46.534 99.79,42.137 105.413,43.2 c 0.976,0.223 2.061,0.528 2.892,-0.262 4.755,-3.486 9.4,-7.148 13.938,-10.9 0.512,-1.3 -1.36,-1.458 -2.136,-1.919 a 36.1,36.1 0 0 0 -14.391,-2.42 z"
         transform="translate(30.585,6.432)"
         fill="#ffffff" />
      <path
         id="path915"
         d="m 81.085,47.243 c -1.175,0.325 -1.08,1.974 -1.638,2.873 C 74.44,64.2 68.611,77.973 63.273,91.935 A 36.418,36.418 0 0 0 61.8,111.807 c 2.159,9.741 8.637,17.627 14.283,25.569 3.249,4.592 6.824,9.8 5.96,15.7 -0.748,4.881 -5.036,8.09 -8.7,10.889 -1.18,1.069 -2.879,1.569 -3.834,2.858 -0.326,1.392 1.54,1.281 2.426,1.269 8.954,-0.2 18.538,-1.724 25.634,-7.621 a 8.186,8.186 0 0 1 7.428,-2.151 c 3.933,0.625 7.825,1.882 11.831,1.854 1.224,-0.207 0.667,-1.648 -0.036,-2.135 -5.335,-5.745 -8,-13.418 -9.135,-21.054 -0.415,-2.288 -0.51,-4.582 -0.93,-6.864 -0.857,-1.059 -2.2,0.293 -3.3,0.131 -2.737,0.3 -5.657,0.2 -8.034,-1.356 -4.409,-2.717 -6.2,-7.925 -7.8,-12.572 -3.511,-11.162 -3.52,-23.341 -2.2,-34.989 A 105.8,105.8 0 0 1 94.276,50.2 c 0.179,-1.583 -1.888,-1.31 -2.885,-1.323 -3.42,0.067 -6.672,-0.857 -9.978,-1.62 a 2.071,2.071 0 0 0 -0.329,-0.011 z"
         transform="translate(41.476,50.737)"
         fill="#ffffff" />
      <path
         id="path917"
         d="m 53.213,45.8 a 19.688,19.688 0 0 0 -5.68,0.741 c -0.45,1.341 1.565,1.646 2.291,2.418 8.506,5.435 14.108,14.055 20.7,21.507 4.776,5.378 9.436,11.042 15.412,15.139 0.657,0.454 1.905,1.416 2.374,0.242 2.6,-6.177 5.161,-12.383 7.463,-18.677 -0.088,-1.285 -1.814,-1.449 -2.716,-1.994 -5.5,-2.13 -10.251,-5.683 -14.758,-9.487 a 52.054,52.054 0 0 0 -16.084,-8.576 29.426,29.426 0 0 0 -9,-1.308 z"
         transform="translate(10.712,47.478)"
         fill="#ffffff" />
    </g>
  </g>
</svg>
