<svg xmlns="http://www.w3.org/2000/svg" width="112.595" height="92.013" viewBox="0 0 112.595 92.013">
  <g id="single_page_icon" data-name="single page icon" transform="translate(-3.5 -12)">
    <path id="Compound_Path" data-name="Compound Path" d="M100.356,12H19.239A15.739,15.739,0,0,0,3.5,27.739V88.274a15.739,15.739,0,0,0,15.739,15.739h81.117A15.739,15.739,0,0,0,116.1,88.274V27.739A15.739,15.739,0,0,0,100.356,12ZM19.239,19.264h81.117a8.475,8.475,0,0,1,8.475,8.475v10.9H10.764v-10.9a8.475,8.475,0,0,1,8.475-8.475Zm81.117,77.485H19.239a8.475,8.475,0,0,1-8.475-8.475V45.9h98.067V88.274A8.475,8.475,0,0,1,100.356,96.749Z" transform="translate(0 0)" fill="#054a91"/>
    <circle id="Path" cx="6.054" cy="6.054" r="6.054" transform="translate(31.346 22.896)" fill="#054a91"/>
    <circle id="Path-2" data-name="Path" cx="6.054" cy="6.054" r="6.054" transform="translate(47.085 22.896)" fill="#054a91"/>
    <circle id="Path-3" data-name="Path" cx="6.054" cy="6.054" r="6.054" transform="translate(15.607 22.896)" fill="#054a91"/>
    <path id="Compound_Path-2" data-name="Compound Path" d="M70.269,49.744a12.955,12.955,0,0,0-16.708-1.211,12.955,12.955,0,0,0-16.708,1.211,12.712,12.712,0,0,0,0,18.039L51.019,81.223a3.632,3.632,0,0,0,4.964,0L70.269,67.784a12.712,12.712,0,0,0,0-18.039ZM65.184,62.578,53.561,73.6,41.938,62.578a5.448,5.448,0,0,1,0-7.749,5.569,5.569,0,0,1,7.87,0l.726.847a3.632,3.632,0,0,0,6.054,0l.726-.847a5.569,5.569,0,0,1,7.87,0,5.448,5.448,0,0,1,0,7.627Z" transform="translate(6.237 7.173)" fill="#054a91"/>
  </g>
</svg>
